<?xml version="1.0" standalone="no"?>
<!DOCTYPE svg PUBLIC "-//W3C//DTD SVG 20010904//EN"
 "http://www.w3.org/TR/2001/REC-SVG-20010904/DTD/svg10.dtd">
<svg version="1.0" xmlns="http://www.w3.org/2000/svg"
 width="32.000000pt" height="32.000000pt" viewBox="0 0 32.000000 32.000000"
 preserveAspectRatio="xMidYMid meet">

<g transform="translate(0.000000,32.000000) scale(0.100000,-0.100000)"
fill="#000000" stroke="none">
<path d="M37 292 c-22 -24 -21 -55 1 -76 18 -15 20 -15 35 2 22 24 21 55 -1
76 -18 15 -20 15 -35 -2z m32 -38 c-14 -14 -17 -14 -29 0 -10 13 -10 19 0 32
12 14 15 14 29 0 14 -15 14 -17 0 -32z"/>
<path d="M170 244 c-57 -30 -108 -62 -111 -72 -4 -10 -14 -24 -23 -31 -24 -20
-20 -64 9 -91 14 -13 25 -29 25 -37 0 -10 28 -13 125 -13 l125 0 -2 83 -2 82
-3 -77 -4 -78 -66 0 c-63 0 -65 1 -50 18 21 23 22 56 1 73 -14 12 -14 14 3 19
10 4 38 6 62 4 29 -1 39 1 30 7 -11 7 -11 9 -1 9 8 0 12 6 10 13 -6 17 -125
18 -163 0 -25 -12 -27 -12 -13 0 10 8 15 17 11 20 -3 4 0 8 8 8 8 1 1 5 -16
10 -30 8 -30 8 5 5 25 -3 55 7 103 31 61 30 67 36 56 51 -8 9 -14 18 -14 19 0
1 -47 -23 -105 -53z m93 9 c-7 -2 -21 -2 -30 0 -10 3 -4 5 12 5 17 0 24 -2 18
-5z m-40 -20 c-7 -2 -21 -2 -30 0 -10 3 -4 5 12 5 17 0 24 -2 18 -5z m-50 -20
c-7 -2 -19 -2 -25 0 -7 3 -2 5 12 5 14 0 19 -2 13 -5z m-73 -39 c0 -14 -3 -14
-15 -4 -8 7 -15 14 -15 16 0 2 7 4 15 4 8 0 15 -7 15 -16z m0 -79 l-24 -26
-25 25 -25 25 24 26 24 26 25 -25 25 -25 -24 -26z m70 50 c-14 -8 -29 -14 -35
-14 -5 0 1 6 15 14 14 8 30 14 35 14 6 0 -1 -6 -15 -14z m45 -2 c-71 -37 -92
-78 -58 -115 15 -17 14 -18 -30 -18 -54 0 -57 7 -22 40 14 13 25 33 25 44 0
15 14 27 48 43 55 25 81 30 37 6z m55 2 c-14 -8 -29 -14 -35 -14 -5 0 1 6 15
14 14 8 30 14 35 14 6 0 -1 -6 -15 -14z m-81 -81 c-14 -14 -17 -14 -29 0 -10
13 -10 19 0 32 12 14 15 14 29 0 14 -15 14 -17 0 -32z"/>
</g>
</svg>
